<mxfile host="app.diagrams.net" agent="Mozilla/5.0 (Windows NT 10.0; Win64; x64; rv:134.0) Gecko/20100101 Firefox/134.0" version="26.2.13">
  <diagram name="Page-1" id="bfe91b75-5d2c-26a0-9c1d-138518896778">
    <mxGraphModel dx="1271" dy="2196" grid="1" gridSize="10" guides="1" tooltips="1" connect="1" arrows="1" fold="1" page="1" pageScale="1" pageWidth="2336" pageHeight="1654" background="none" math="0" shadow="0">
      <root>
        <mxCell id="0" />
        <mxCell id="1" parent="0" />
        <mxCell id="w2l174Xh_j5TS_qFz10p-42" value="그룹사&lt;br style=&quot;font-size: 24px;&quot;&gt;Kubernetes 아키텍처" style="text;html=1;strokeColor=none;fillColor=none;align=center;verticalAlign=middle;whiteSpace=wrap;rounded=0;fontSize=24;fontStyle=4" parent="1" vertex="1">
          <mxGeometry x="572.5" y="-1620" width="425.5" height="60" as="geometry" />
        </mxCell>
        <mxCell id="w2l174Xh_j5TS_qFz10p-57" style="edgeStyle=orthogonalEdgeStyle;rounded=0;orthogonalLoop=1;jettySize=auto;html=1;fontFamily=Tahoma;fontSize=11;endArrow=none;endFill=0;fontStyle=0" parent="1" edge="1">
          <mxGeometry relative="1" as="geometry">
            <mxPoint x="856.5" y="-691" as="targetPoint" />
            <mxPoint x="856.5" y="-661" as="sourcePoint" />
          </mxGeometry>
        </mxCell>
        <mxCell id="w2l174Xh_j5TS_qFz10p-58" style="edgeStyle=orthogonalEdgeStyle;rounded=0;orthogonalLoop=1;jettySize=auto;html=1;fontFamily=Tahoma;fontSize=11;endArrow=none;endFill=0;fontStyle=0" parent="1" edge="1">
          <mxGeometry relative="1" as="geometry">
            <mxPoint x="1086" y="-691" as="targetPoint" />
            <mxPoint x="1086" y="-661" as="sourcePoint" />
          </mxGeometry>
        </mxCell>
        <mxCell id="w2l174Xh_j5TS_qFz10p-59" style="edgeStyle=orthogonalEdgeStyle;rounded=0;orthogonalLoop=1;jettySize=auto;html=1;fontFamily=Tahoma;fontSize=11;endArrow=none;endFill=0;fontStyle=0" parent="1" edge="1">
          <mxGeometry relative="1" as="geometry">
            <mxPoint x="1198" y="-691" as="targetPoint" />
            <mxPoint x="1198" y="-661" as="sourcePoint" />
          </mxGeometry>
        </mxCell>
        <mxCell id="w2l174Xh_j5TS_qFz10p-60" style="edgeStyle=orthogonalEdgeStyle;rounded=0;orthogonalLoop=1;jettySize=auto;html=1;fontFamily=Tahoma;fontSize=11;endArrow=none;endFill=0;fontStyle=0" parent="1" edge="1">
          <mxGeometry relative="1" as="geometry">
            <mxPoint x="974" y="-691" as="targetPoint" />
            <mxPoint x="974" y="-661" as="sourcePoint" />
          </mxGeometry>
        </mxCell>
        <mxCell id="w2l174Xh_j5TS_qFz10p-61" style="edgeStyle=orthogonalEdgeStyle;rounded=0;orthogonalLoop=1;jettySize=auto;html=1;fontFamily=Tahoma;fontSize=11;endArrow=none;endFill=0;fontStyle=0" parent="1" edge="1">
          <mxGeometry relative="1" as="geometry">
            <mxPoint x="1302" y="-686" as="targetPoint" />
            <mxPoint x="1302" y="-656" as="sourcePoint" />
          </mxGeometry>
        </mxCell>
        <mxCell id="w2l174Xh_j5TS_qFz10p-62" style="edgeStyle=orthogonalEdgeStyle;rounded=0;orthogonalLoop=1;jettySize=auto;html=1;fontFamily=Tahoma;fontSize=11;endArrow=none;endFill=0;fontStyle=0" parent="1" edge="1">
          <mxGeometry relative="1" as="geometry">
            <mxPoint x="744" y="-691" as="targetPoint" />
            <mxPoint x="744" y="-661" as="sourcePoint" />
          </mxGeometry>
        </mxCell>
        <mxCell id="w2l174Xh_j5TS_qFz10p-56" value="" style="endArrow=none;html=1;rounded=0;" parent="1" edge="1">
          <mxGeometry width="50" height="50" relative="1" as="geometry">
            <mxPoint x="640" y="-657" as="sourcePoint" />
            <mxPoint x="1340" y="-657" as="targetPoint" />
          </mxGeometry>
        </mxCell>
        <mxCell id="bJePmw3YO0TLyzTxLK3B-58" value="" style="endArrow=none;html=1;rounded=0;" parent="1" edge="1">
          <mxGeometry width="50" height="50" relative="1" as="geometry">
            <mxPoint x="640" y="-1251" as="sourcePoint" />
            <mxPoint x="1340" y="-1251" as="targetPoint" />
          </mxGeometry>
        </mxCell>
        <mxCell id="kw6kMB2n_E4hMTKtBwWy-3" style="edgeStyle=orthogonalEdgeStyle;rounded=0;orthogonalLoop=1;jettySize=auto;html=1;fontFamily=Tahoma;fontSize=11;endArrow=none;endFill=0;fontStyle=0" parent="1" edge="1">
          <mxGeometry relative="1" as="geometry">
            <mxPoint x="856.5" y="-1109" as="targetPoint" />
            <mxPoint x="856.5" y="-1079" as="sourcePoint" />
          </mxGeometry>
        </mxCell>
        <mxCell id="kw6kMB2n_E4hMTKtBwWy-5" value="" style="sketch=0;pointerEvents=1;shadow=0;dashed=0;html=1;strokeColor=none;fillColor=#505050;labelPosition=center;verticalLabelPosition=bottom;verticalAlign=top;outlineConnect=0;align=center;shape=mxgraph.office.servers.virtual_database_server;fontFamily=Tahoma;fontSize=11;fontStyle=1;container=0;" parent="1" vertex="1">
          <mxGeometry x="842" y="-1079" width="41" height="56" as="geometry" />
        </mxCell>
        <mxCell id="kw6kMB2n_E4hMTKtBwWy-6" value="&lt;span style=&quot;font-weight: normal;&quot;&gt;Event Logger&lt;/span&gt;" style="sketch=0;pointerEvents=1;shadow=0;dashed=0;html=1;strokeColor=none;fillColor=#505050;labelPosition=center;verticalLabelPosition=bottom;verticalAlign=top;outlineConnect=0;align=center;shape=mxgraph.office.servers.virtual_server;fontFamily=Tahoma;fontSize=11;fontStyle=1;container=0;" parent="1" vertex="1">
          <mxGeometry x="1080" y="-930" width="28" height="52" as="geometry" />
        </mxCell>
        <mxCell id="kw6kMB2n_E4hMTKtBwWy-7" style="edgeStyle=orthogonalEdgeStyle;rounded=0;orthogonalLoop=1;jettySize=auto;html=1;fontFamily=Tahoma;fontSize=11;endArrow=none;endFill=0;fontStyle=0" parent="1" source="kw6kMB2n_E4hMTKtBwWy-9" edge="1">
          <mxGeometry relative="1" as="geometry">
            <mxPoint x="1094" y="-1109" as="targetPoint" />
          </mxGeometry>
        </mxCell>
        <mxCell id="kw6kMB2n_E4hMTKtBwWy-8" style="edgeStyle=orthogonalEdgeStyle;rounded=0;orthogonalLoop=1;jettySize=auto;html=1;fontFamily=Tahoma;fontSize=11;endArrow=none;endFill=0;" parent="1" source="kw6kMB2n_E4hMTKtBwWy-9" target="kw6kMB2n_E4hMTKtBwWy-6" edge="1">
          <mxGeometry relative="1" as="geometry" />
        </mxCell>
        <mxCell id="kw6kMB2n_E4hMTKtBwWy-9" value="&lt;span style=&quot;font-weight: 400;&quot;&gt;Auth Server&lt;/span&gt;&lt;br&gt;&lt;br&gt;&lt;span style=&quot;font-weight: 400;&quot;&gt;(172.xx.xx.xx)&lt;/span&gt;&lt;br style=&quot;font-weight: 400;&quot;&gt;&lt;span style=&quot;font-weight: 400;&quot;&gt;(10.xxx.xx.xx)&lt;/span&gt;" style="sketch=0;pointerEvents=1;shadow=0;dashed=0;html=1;strokeColor=none;fillColor=#505050;labelPosition=center;verticalLabelPosition=bottom;verticalAlign=top;outlineConnect=0;align=center;shape=mxgraph.office.servers.virtual_server;fontFamily=Tahoma;fontSize=11;fontStyle=1;container=0;" parent="1" vertex="1">
          <mxGeometry x="1080" y="-1079" width="28" height="52" as="geometry" />
        </mxCell>
        <mxCell id="kw6kMB2n_E4hMTKtBwWy-10" style="edgeStyle=orthogonalEdgeStyle;rounded=0;orthogonalLoop=1;jettySize=auto;html=1;fontFamily=Tahoma;fontSize=11;endArrow=none;endFill=0;fontStyle=0" parent="1" source="kw6kMB2n_E4hMTKtBwWy-11" edge="1">
          <mxGeometry relative="1" as="geometry">
            <mxPoint x="1193" y="-1109" as="targetPoint" />
          </mxGeometry>
        </mxCell>
        <mxCell id="kw6kMB2n_E4hMTKtBwWy-11" value="&lt;span style=&quot;font-weight: normal;&quot;&gt;Gitlab&lt;/span&gt;&lt;br&gt;&lt;br&gt;&lt;span style=&quot;font-weight: 400;&quot;&gt;(172.xx.xx.xx)&lt;/span&gt;&lt;br style=&quot;font-weight: 400;&quot;&gt;&lt;span style=&quot;font-weight: 400;&quot;&gt;(10.xxx.xx.xx)&lt;/span&gt;" style="sketch=0;pointerEvents=1;shadow=0;dashed=0;html=1;strokeColor=none;fillColor=#505050;labelPosition=center;verticalLabelPosition=bottom;verticalAlign=top;outlineConnect=0;align=center;shape=mxgraph.office.servers.virtual_server;fontFamily=Tahoma;fontSize=11;fontStyle=1;container=0;" parent="1" vertex="1">
          <mxGeometry x="1179" y="-1079" width="28" height="52" as="geometry" />
        </mxCell>
        <mxCell id="kw6kMB2n_E4hMTKtBwWy-12" value="" style="shape=link;html=1;rounded=0;fontFamily=Tahoma;fontSize=11;fontStyle=1;fillColor=#dae8fc;strokeColor=#6c8ebf;" parent="1" edge="1">
          <mxGeometry width="100" relative="1" as="geometry">
            <mxPoint x="620" y="-1109" as="sourcePoint" />
            <mxPoint x="1370" y="-1109" as="targetPoint" />
          </mxGeometry>
        </mxCell>
        <mxCell id="kw6kMB2n_E4hMTKtBwWy-13" value="Kube System" style="edgeLabel;html=1;align=center;verticalAlign=middle;resizable=0;points=[];fontSize=11;fontFamily=Tahoma;fontStyle=1;container=0;" parent="kw6kMB2n_E4hMTKtBwWy-12" vertex="1" connectable="0">
          <mxGeometry x="0.6492" y="1" relative="1" as="geometry">
            <mxPoint x="-545" as="offset" />
          </mxGeometry>
        </mxCell>
        <mxCell id="kw6kMB2n_E4hMTKtBwWy-14" value="" style="shape=link;html=1;rounded=0;fontFamily=Tahoma;fontSize=11;fontStyle=1;fillColor=#dae8fc;strokeColor=#6c8ebf;" parent="1" edge="1">
          <mxGeometry width="100" relative="1" as="geometry">
            <mxPoint x="620" y="-1490" as="sourcePoint" />
            <mxPoint x="1370" y="-1490" as="targetPoint" />
          </mxGeometry>
        </mxCell>
        <mxCell id="kw6kMB2n_E4hMTKtBwWy-15" value="HA - Layers" style="edgeLabel;html=1;align=center;verticalAlign=middle;resizable=0;points=[];fontSize=11;fontFamily=Tahoma;fontStyle=1;container=0;" parent="kw6kMB2n_E4hMTKtBwWy-14" vertex="1" connectable="0">
          <mxGeometry x="0.6492" y="1" relative="1" as="geometry">
            <mxPoint x="-548" as="offset" />
          </mxGeometry>
        </mxCell>
        <mxCell id="kw6kMB2n_E4hMTKtBwWy-18" style="edgeStyle=orthogonalEdgeStyle;rounded=0;orthogonalLoop=1;jettySize=auto;html=1;fontFamily=Tahoma;fontSize=11;endArrow=none;endFill=0;fontStyle=0" parent="1" source="kw6kMB2n_E4hMTKtBwWy-19" edge="1">
          <mxGeometry relative="1" as="geometry">
            <mxPoint x="841" y="-1490" as="targetPoint" />
          </mxGeometry>
        </mxCell>
        <mxCell id="kw6kMB2n_E4hMTKtBwWy-19" value="Controle&amp;nbsp;&lt;br&gt;Plane #1" style="sketch=0;pointerEvents=1;shadow=0;dashed=0;html=1;strokeColor=none;labelPosition=center;verticalLabelPosition=bottom;verticalAlign=top;outlineConnect=0;align=center;shape=mxgraph.office.servers.virtual_server;fillColor=#2072B8;fontFamily=Tahoma;fontSize=11;fontStyle=0;container=0;" parent="1" vertex="1">
          <mxGeometry x="827" y="-1460" width="28" height="52" as="geometry" />
        </mxCell>
        <mxCell id="kw6kMB2n_E4hMTKtBwWy-20" style="edgeStyle=orthogonalEdgeStyle;rounded=0;orthogonalLoop=1;jettySize=auto;html=1;fontFamily=Tahoma;fontSize=11;endArrow=none;endFill=0;fontStyle=0" parent="1" source="kw6kMB2n_E4hMTKtBwWy-21" edge="1">
          <mxGeometry relative="1" as="geometry">
            <mxPoint x="916" y="-1490" as="targetPoint" />
          </mxGeometry>
        </mxCell>
        <mxCell id="kw6kMB2n_E4hMTKtBwWy-21" value="Controle&lt;br&gt;Plane #2" style="sketch=0;pointerEvents=1;shadow=0;dashed=0;html=1;strokeColor=none;labelPosition=center;verticalLabelPosition=bottom;verticalAlign=top;outlineConnect=0;align=center;shape=mxgraph.office.servers.virtual_server;fillColor=#2072B8;fontFamily=Tahoma;fontSize=11;fontStyle=0;container=0;" parent="1" vertex="1">
          <mxGeometry x="902" y="-1460" width="28" height="52" as="geometry" />
        </mxCell>
        <mxCell id="kw6kMB2n_E4hMTKtBwWy-22" style="edgeStyle=orthogonalEdgeStyle;rounded=0;orthogonalLoop=1;jettySize=auto;html=1;fontFamily=Tahoma;fontSize=11;endArrow=none;endFill=0;fontStyle=0" parent="1" source="kw6kMB2n_E4hMTKtBwWy-23" edge="1">
          <mxGeometry relative="1" as="geometry">
            <mxPoint x="1255" y="-1490" as="targetPoint" />
          </mxGeometry>
        </mxCell>
        <mxCell id="kw6kMB2n_E4hMTKtBwWy-23" value="Kube DNS #n&lt;br&gt;(172.xx.xx.xx)&lt;br&gt;(10.xxx.xx.xx)" style="sketch=0;pointerEvents=1;shadow=0;dashed=0;html=1;strokeColor=none;labelPosition=center;verticalLabelPosition=bottom;verticalAlign=top;outlineConnect=0;align=center;shape=mxgraph.office.servers.virtual_server;fillColor=#2072B8;fontFamily=Tahoma;fontSize=11;fontStyle=0;container=0;" parent="1" vertex="1">
          <mxGeometry x="1241" y="-1460" width="28" height="52" as="geometry" />
        </mxCell>
        <mxCell id="kw6kMB2n_E4hMTKtBwWy-24" style="edgeStyle=orthogonalEdgeStyle;rounded=0;orthogonalLoop=1;jettySize=auto;html=1;fontFamily=Tahoma;fontSize=11;endArrow=none;endFill=0;fontStyle=0" parent="1" source="kw6kMB2n_E4hMTKtBwWy-25" edge="1">
          <mxGeometry relative="1" as="geometry">
            <mxPoint x="991" y="-1109" as="targetPoint" />
          </mxGeometry>
        </mxCell>
        <mxCell id="kw6kMB2n_E4hMTKtBwWy-25" value="API Gateway #n" style="sketch=0;pointerEvents=1;shadow=0;dashed=0;html=1;strokeColor=none;fillColor=#505050;labelPosition=center;verticalLabelPosition=bottom;verticalAlign=top;outlineConnect=0;align=center;shape=mxgraph.office.servers.virtual_server;fontFamily=Tahoma;fontSize=11;fontStyle=0;container=0;" parent="1" vertex="1">
          <mxGeometry x="977" y="-1079" width="28" height="52" as="geometry" />
        </mxCell>
        <mxCell id="kw6kMB2n_E4hMTKtBwWy-26" style="edgeStyle=orthogonalEdgeStyle;rounded=0;orthogonalLoop=1;jettySize=auto;html=1;fontFamily=Tahoma;fontSize=11;endArrow=none;endFill=0;fontStyle=0" parent="1" source="kw6kMB2n_E4hMTKtBwWy-27" edge="1">
          <mxGeometry relative="1" as="geometry">
            <mxPoint x="1291" y="-1109" as="targetPoint" />
          </mxGeometry>
        </mxCell>
        <mxCell id="kw6kMB2n_E4hMTKtBwWy-27" value="Prometheus #n&lt;br&gt;&lt;br&gt;(172.xx.xx.xx)&lt;br&gt;(10.xxx.xx.xx)" style="sketch=0;pointerEvents=1;shadow=0;dashed=0;html=1;strokeColor=none;fillColor=#505050;labelPosition=center;verticalLabelPosition=bottom;verticalAlign=top;outlineConnect=0;align=center;shape=mxgraph.office.servers.virtual_server;fontFamily=Tahoma;fontSize=11;fontStyle=0;container=0;" parent="1" vertex="1">
          <mxGeometry x="1277" y="-1079" width="28" height="52" as="geometry" />
        </mxCell>
        <mxCell id="kw6kMB2n_E4hMTKtBwWy-28" style="edgeStyle=orthogonalEdgeStyle;rounded=0;orthogonalLoop=1;jettySize=auto;html=1;fontFamily=Tahoma;fontSize=11;endArrow=none;endFill=0;fontStyle=0" parent="1" source="kw6kMB2n_E4hMTKtBwWy-29" edge="1">
          <mxGeometry relative="1" as="geometry">
            <mxPoint x="744" y="-1109" as="targetPoint" />
          </mxGeometry>
        </mxCell>
        <mxCell id="kw6kMB2n_E4hMTKtBwWy-29" value="CertManager #n" style="sketch=0;pointerEvents=1;shadow=0;dashed=0;html=1;strokeColor=none;fillColor=#505050;labelPosition=center;verticalLabelPosition=bottom;verticalAlign=top;outlineConnect=0;align=center;shape=mxgraph.office.servers.virtual_server;fontFamily=Tahoma;fontSize=11;fontStyle=0;container=0;" parent="1" vertex="1">
          <mxGeometry x="730" y="-1079" width="28" height="52" as="geometry" />
        </mxCell>
        <mxCell id="kw6kMB2n_E4hMTKtBwWy-30" style="edgeStyle=orthogonalEdgeStyle;rounded=0;orthogonalLoop=1;jettySize=auto;html=1;fontFamily=Tahoma;fontSize=11;endArrow=none;endFill=0;fontStyle=0" parent="1" source="kw6kMB2n_E4hMTKtBwWy-31" edge="1">
          <mxGeometry relative="1" as="geometry">
            <mxPoint x="749" y="-1490" as="targetPoint" />
          </mxGeometry>
        </mxCell>
        <mxCell id="kw6kMB2n_E4hMTKtBwWy-31" value="VM Router #n&lt;br&gt;(172.xx.xx.xx)&lt;br&gt;(10.xxx.xx.xx)" style="sketch=0;pointerEvents=1;shadow=0;dashed=0;html=1;strokeColor=none;labelPosition=center;verticalLabelPosition=bottom;verticalAlign=top;outlineConnect=0;align=center;shape=mxgraph.office.servers.virtual_server;fillColor=#2072B8;fontFamily=Tahoma;fontSize=11;fontStyle=0;container=0;" parent="1" vertex="1">
          <mxGeometry x="735" y="-1460" width="28" height="52" as="geometry" />
        </mxCell>
        <mxCell id="kw6kMB2n_E4hMTKtBwWy-34" style="edgeStyle=orthogonalEdgeStyle;rounded=0;orthogonalLoop=1;jettySize=auto;html=1;exitX=0.8555;exitY=0.145;exitDx=0;exitDy=0;exitPerimeter=0;fontFamily=Tahoma;fontSize=11;endArrow=none;endFill=0;fontStyle=0" parent="1" source="kw6kMB2n_E4hMTKtBwWy-36" edge="1">
          <mxGeometry relative="1" as="geometry">
            <mxPoint x="640" y="-1490" as="targetPoint" />
            <mxPoint x="566.5" y="-1380" as="sourcePoint" />
          </mxGeometry>
        </mxCell>
        <mxCell id="kw6kMB2n_E4hMTKtBwWy-35" style="edgeStyle=orthogonalEdgeStyle;rounded=0;orthogonalLoop=1;jettySize=auto;html=1;exitX=0.7;exitY=0.86;exitDx=0;exitDy=0;exitPerimeter=0;fontFamily=Tahoma;fontSize=11;endArrow=none;endFill=0;fontStyle=0" parent="1" source="kw6kMB2n_E4hMTKtBwWy-36" edge="1">
          <mxGeometry relative="1" as="geometry">
            <mxPoint x="640" y="-1110" as="targetPoint" />
            <mxPoint x="566.5" y="-1352.5" as="sourcePoint" />
          </mxGeometry>
        </mxCell>
        <mxCell id="kw6kMB2n_E4hMTKtBwWy-36" value="&lt;font style=&quot;font-size: 10px;&quot;&gt;FireWall&lt;/font&gt;" style="sketch=0;points=[[0.5,0,0],[1,0.5,0],[0.5,1,0],[0,0.5,0],[0.145,0.145,0],[0.8555,0.145,0],[0.855,0.8555,0],[0.145,0.855,0]];verticalLabelPosition=bottom;html=1;verticalAlign=top;aspect=fixed;align=center;pointerEvents=1;shape=mxgraph.cisco19.rect;prIcon=router_with_firewall;fillColor=#FAFAFA;strokeColor=#005073;fontFamily=Tahoma;fontSize=11;fontStyle=1;container=0;" parent="1" vertex="1">
          <mxGeometry x="550" y="-1390" width="30" height="30" as="geometry" />
        </mxCell>
        <mxCell id="kw6kMB2n_E4hMTKtBwWy-37" style="edgeStyle=orthogonalEdgeStyle;rounded=0;orthogonalLoop=1;jettySize=auto;html=1;entryX=0;entryY=0.5;entryDx=0;entryDy=0;entryPerimeter=0;fontFamily=Tahoma;fontSize=11;endArrow=none;endFill=0;fontStyle=0;flowAnimation=1;" parent="1" source="kw6kMB2n_E4hMTKtBwWy-38" target="kw6kMB2n_E4hMTKtBwWy-36" edge="1">
          <mxGeometry relative="1" as="geometry" />
        </mxCell>
        <mxCell id="kw6kMB2n_E4hMTKtBwWy-38" value="Public&amp;nbsp; Network" style="sketch=0;pointerEvents=1;shadow=0;dashed=0;html=1;strokeColor=#b85450;fillColor=#f8cecc;labelPosition=center;verticalLabelPosition=bottom;verticalAlign=top;outlineConnect=0;align=center;shape=mxgraph.office.sites.website_public;fontFamily=Tahoma;fontSize=11;fontStyle=1;container=0;" parent="1" vertex="1">
          <mxGeometry x="253" y="-1399" width="58" height="48" as="geometry" />
        </mxCell>
        <mxCell id="kw6kMB2n_E4hMTKtBwWy-39" value="" style="shape=link;html=1;rounded=0;fontFamily=Tahoma;fontSize=11;fillColor=#f8cecc;strokeColor=#b85450;fontStyle=1" parent="1" edge="1">
          <mxGeometry width="100" relative="1" as="geometry">
            <mxPoint x="289" y="-1063.8089171974523" as="sourcePoint" />
            <mxPoint x="573" y="-1062" as="targetPoint" />
          </mxGeometry>
        </mxCell>
        <mxCell id="kw6kMB2n_E4hMTKtBwWy-42" value="Group&lt;br&gt;Firewall" style="sketch=0;points=[[0.5,0,0],[1,0.5,0],[0.5,1,0],[0,0.5,0],[0.145,0.145,0],[0.8555,0.145,0],[0.855,0.8555,0],[0.145,0.855,0]];verticalLabelPosition=bottom;html=1;verticalAlign=top;aspect=fixed;align=center;pointerEvents=1;shape=mxgraph.cisco19.rect;prIcon=router_with_firewall;fillColor=#FAFAFA;strokeColor=#005073;fontFamily=Tahoma;fontSize=11;fontStyle=1;container=0;" parent="1" vertex="1">
          <mxGeometry x="420.5" y="-974" width="30" height="30" as="geometry" />
        </mxCell>
        <mxCell id="kw6kMB2n_E4hMTKtBwWy-43" value="" style="sketch=0;pointerEvents=1;shadow=0;dashed=0;html=1;strokeColor=none;fillColor=#505050;labelPosition=center;verticalLabelPosition=bottom;verticalAlign=top;outlineConnect=0;align=center;shape=mxgraph.office.servers.virtual_server;fontFamily=Tahoma;fontSize=11;fontStyle=1;container=0;" parent="1" vertex="1">
          <mxGeometry x="1080" y="-930" width="28" height="52" as="geometry" />
        </mxCell>
        <mxCell id="kw6kMB2n_E4hMTKtBwWy-46" value="&lt;span style=&quot;font-weight: normal;&quot;&gt;CD/CI #n&lt;br&gt;&lt;/span&gt;&lt;span style=&quot;font-weight: 400;&quot;&gt;(172.xx.xx.xx)&lt;/span&gt;&lt;br style=&quot;font-weight: 400;&quot;&gt;&lt;span style=&quot;font-weight: 400;&quot;&gt;(10.xxx.xx.xx)&lt;/span&gt;&lt;span style=&quot;font-weight: normal;&quot;&gt;&lt;br&gt;&lt;/span&gt;" style="sketch=0;pointerEvents=1;shadow=0;dashed=0;html=1;strokeColor=none;fillColor=#505050;labelPosition=center;verticalLabelPosition=bottom;verticalAlign=top;outlineConnect=0;align=center;shape=mxgraph.office.servers.virtual_server;fontFamily=Tahoma;fontSize=11;fontStyle=1;container=0;" parent="1" vertex="1">
          <mxGeometry x="1179" y="-930" width="28" height="52" as="geometry" />
        </mxCell>
        <mxCell id="kw6kMB2n_E4hMTKtBwWy-47" value="&lt;span style=&quot;font-weight: normal;&quot;&gt;Harbor&lt;/span&gt;" style="sketch=0;pointerEvents=1;shadow=0;dashed=0;html=1;strokeColor=none;fillColor=#505050;labelPosition=center;verticalLabelPosition=bottom;verticalAlign=top;outlineConnect=0;align=center;shape=mxgraph.office.servers.virtual_server;fontFamily=Tahoma;fontSize=11;fontStyle=1;container=0;" parent="1" vertex="1">
          <mxGeometry x="1257" y="-930" width="28" height="52" as="geometry" />
        </mxCell>
        <mxCell id="kw6kMB2n_E4hMTKtBwWy-48" value="" style="endArrow=none;html=1;rounded=0;" parent="1" source="kw6kMB2n_E4hMTKtBwWy-46" target="kw6kMB2n_E4hMTKtBwWy-11" edge="1">
          <mxGeometry width="50" height="50" relative="1" as="geometry">
            <mxPoint x="1197" y="-950" as="sourcePoint" />
            <mxPoint x="1247" y="-1000" as="targetPoint" />
          </mxGeometry>
        </mxCell>
        <mxCell id="kw6kMB2n_E4hMTKtBwWy-49" value="" style="endArrow=none;html=1;rounded=0;entryX=0.5;entryY=0;entryDx=0;entryDy=0;entryPerimeter=0;" parent="1" target="kw6kMB2n_E4hMTKtBwWy-47" edge="1">
          <mxGeometry width="50" height="50" relative="1" as="geometry">
            <mxPoint x="1193" y="-1030" as="sourcePoint" />
            <mxPoint x="1227" y="-930" as="targetPoint" />
          </mxGeometry>
        </mxCell>
        <mxCell id="kw6kMB2n_E4hMTKtBwWy-53" value="Group&lt;br&gt;External" style="sketch=0;aspect=fixed;pointerEvents=1;shadow=0;dashed=0;html=1;strokeColor=none;labelPosition=center;verticalLabelPosition=bottom;verticalAlign=top;align=center;fillColor=#00188D;shape=mxgraph.mscae.enterprise.gateway;container=0;" parent="1" vertex="1">
          <mxGeometry x="550" y="-1080" width="30" height="30" as="geometry" />
        </mxCell>
        <mxCell id="kw6kMB2n_E4hMTKtBwWy-56" value="&lt;font size=&quot;1&quot;&gt;VPN&lt;br&gt;Router&lt;br&gt;&lt;/font&gt;" style="sketch=0;points=[[0.5,0,0],[1,0.5,0],[0.5,1,0],[0,0.5,0],[0.145,0.145,0],[0.8555,0.145,0],[0.855,0.8555,0],[0.145,0.855,0]];verticalLabelPosition=bottom;html=1;verticalAlign=top;aspect=fixed;align=center;pointerEvents=1;shape=mxgraph.cisco19.rect;prIcon=router_with_firewall;fillColor=#FAFAFA;strokeColor=#005073;fontFamily=Tahoma;fontSize=11;fontStyle=1;container=0;" parent="1" vertex="1">
          <mxGeometry x="418" y="-1307" width="35" height="35" as="geometry" />
        </mxCell>
        <mxCell id="kw6kMB2n_E4hMTKtBwWy-61" value="&lt;font size=&quot;1&quot;&gt;VPN&lt;br&gt;User&lt;br&gt;&lt;/font&gt;" style="sketch=0;aspect=fixed;pointerEvents=1;shadow=0;dashed=0;html=1;strokeColor=none;labelPosition=center;verticalLabelPosition=bottom;verticalAlign=top;align=center;fillColor=#00188D;shape=mxgraph.mscae.enterprise.workstation_client;container=0;" parent="1" vertex="1">
          <mxGeometry x="253" y="-1200" width="39" height="39" as="geometry" />
        </mxCell>
        <mxCell id="kw6kMB2n_E4hMTKtBwWy-62" value="" style="edgeStyle=orthogonalEdgeStyle;rounded=0;orthogonalLoop=1;jettySize=auto;html=1;flowAnimation=1;" parent="1" source="kw6kMB2n_E4hMTKtBwWy-63" target="kw6kMB2n_E4hMTKtBwWy-56" edge="1">
          <mxGeometry relative="1" as="geometry" />
        </mxCell>
        <mxCell id="kw6kMB2n_E4hMTKtBwWy-63" value="&lt;font size=&quot;1&quot;&gt;VPN&lt;br&gt;&lt;/font&gt;" style="sketch=0;points=[[0.5,0,0],[1,0.5,0],[0.5,1,0],[0,0.5,0],[0.145,0.145,0],[0.8555,0.145,0],[0.855,0.8555,0],[0.145,0.855,0]];verticalLabelPosition=bottom;html=1;verticalAlign=top;aspect=fixed;align=center;pointerEvents=1;shape=mxgraph.cisco19.rect;prIcon=router_with_firewall;fillColor=#FAFAFA;strokeColor=#005073;fontFamily=Tahoma;fontSize=11;fontStyle=1;container=0;" parent="1" vertex="1">
          <mxGeometry x="418" y="-1198" width="35" height="35" as="geometry" />
        </mxCell>
        <mxCell id="kw6kMB2n_E4hMTKtBwWy-60" value="" style="edgeStyle=orthogonalEdgeStyle;rounded=0;orthogonalLoop=1;jettySize=auto;html=1;flowAnimation=1;" parent="1" source="kw6kMB2n_E4hMTKtBwWy-61" target="kw6kMB2n_E4hMTKtBwWy-63" edge="1">
          <mxGeometry relative="1" as="geometry" />
        </mxCell>
        <mxCell id="kw6kMB2n_E4hMTKtBwWy-100" value="&lt;span style=&quot;font-weight: normal;&quot;&gt;Platform Database&lt;br&gt;(Primary, Replicas)&lt;/span&gt;" style="sketch=0;pointerEvents=1;shadow=0;dashed=0;html=1;strokeColor=none;fillColor=#505050;labelPosition=center;verticalLabelPosition=bottom;verticalAlign=top;outlineConnect=0;align=center;shape=mxgraph.office.servers.virtual_database_server;fontFamily=Tahoma;fontSize=11;fontStyle=1;container=0;" parent="1" vertex="1">
          <mxGeometry x="852" y="-1062" width="41" height="56" as="geometry" />
        </mxCell>
        <mxCell id="kw6kMB2n_E4hMTKtBwWy-136" value="Intranet&amp;nbsp;&amp;nbsp;" style="sketch=0;pointerEvents=1;shadow=0;dashed=0;html=1;strokeColor=#b85450;fillColor=#f8cecc;labelPosition=center;verticalLabelPosition=bottom;verticalAlign=top;outlineConnect=0;align=center;shape=mxgraph.office.sites.website_public;fontFamily=Tahoma;fontSize=11;fontStyle=1;container=0;direction=east;" parent="1" vertex="1">
          <mxGeometry x="243.5" y="-978" width="58" height="52" as="geometry" />
        </mxCell>
        <mxCell id="bJePmw3YO0TLyzTxLK3B-21" value="&lt;font size=&quot;1&quot;&gt;Router&lt;br&gt;&lt;/font&gt;" style="sketch=0;aspect=fixed;pointerEvents=1;shadow=0;dashed=0;html=1;strokeColor=none;labelPosition=center;verticalLabelPosition=bottom;verticalAlign=top;align=center;fillColor=#00188D;shape=mxgraph.mscae.enterprise.gateway;container=0;" parent="1" vertex="1">
          <mxGeometry x="425" y="-1390" width="30" height="30" as="geometry" />
        </mxCell>
        <mxCell id="bJePmw3YO0TLyzTxLK3B-24" style="edgeStyle=orthogonalEdgeStyle;rounded=0;orthogonalLoop=1;jettySize=auto;html=1;fontFamily=Tahoma;fontSize=11;endArrow=none;endFill=0;fontStyle=0" parent="1" edge="1">
          <mxGeometry relative="1" as="geometry">
            <mxPoint x="997" y="-1490" as="targetPoint" />
            <mxPoint x="998" y="-1460" as="sourcePoint" />
          </mxGeometry>
        </mxCell>
        <mxCell id="bJePmw3YO0TLyzTxLK3B-25" value="Controle&lt;br&gt;Plane #3" style="sketch=0;pointerEvents=1;shadow=0;dashed=0;html=1;strokeColor=none;labelPosition=center;verticalLabelPosition=bottom;verticalAlign=top;outlineConnect=0;align=center;shape=mxgraph.office.servers.virtual_server;fillColor=#2072B8;fontFamily=Tahoma;fontSize=11;fontStyle=0;container=0;" parent="1" vertex="1">
          <mxGeometry x="982" y="-1460" width="28" height="52" as="geometry" />
        </mxCell>
        <mxCell id="bJePmw3YO0TLyzTxLK3B-29" style="edgeStyle=orthogonalEdgeStyle;rounded=0;orthogonalLoop=1;jettySize=auto;html=1;fontFamily=Tahoma;fontSize=11;endArrow=none;endFill=0;fontStyle=0" parent="1" source="bJePmw3YO0TLyzTxLK3B-30" edge="1">
          <mxGeometry relative="1" as="geometry">
            <mxPoint x="1070" y="-1490" as="targetPoint" />
          </mxGeometry>
        </mxCell>
        <mxCell id="bJePmw3YO0TLyzTxLK3B-30" value="Ingress&lt;br&gt;Controller" style="sketch=0;pointerEvents=1;shadow=0;dashed=0;html=1;strokeColor=none;labelPosition=center;verticalLabelPosition=bottom;verticalAlign=top;outlineConnect=0;align=center;shape=mxgraph.office.servers.virtual_server;fillColor=#2072B8;fontFamily=Tahoma;fontSize=11;fontStyle=0;container=0;" parent="1" vertex="1">
          <mxGeometry x="1056" y="-1460" width="28" height="52" as="geometry" />
        </mxCell>
        <mxCell id="bJePmw3YO0TLyzTxLK3B-32" style="edgeStyle=orthogonalEdgeStyle;rounded=0;orthogonalLoop=1;jettySize=auto;html=1;fontFamily=Tahoma;fontSize=11;endArrow=none;endFill=0;fontStyle=0" parent="1" source="bJePmw3YO0TLyzTxLK3B-33" edge="1">
          <mxGeometry relative="1" as="geometry">
            <mxPoint x="1154" y="-1490" as="targetPoint" />
          </mxGeometry>
        </mxCell>
        <mxCell id="bJePmw3YO0TLyzTxLK3B-33" value="Metallb #n" style="sketch=0;pointerEvents=1;shadow=0;dashed=0;html=1;strokeColor=none;labelPosition=center;verticalLabelPosition=bottom;verticalAlign=top;outlineConnect=0;align=center;shape=mxgraph.office.servers.virtual_server;fillColor=#2072B8;fontFamily=Tahoma;fontSize=11;fontStyle=0;container=0;" parent="1" vertex="1">
          <mxGeometry x="1140" y="-1460" width="28" height="52" as="geometry" />
        </mxCell>
        <mxCell id="bJePmw3YO0TLyzTxLK3B-34" value="" style="endArrow=none;html=1;rounded=0;" parent="1" edge="1">
          <mxGeometry width="50" height="50" relative="1" as="geometry">
            <mxPoint x="934.5" y="-1231" as="sourcePoint" />
            <mxPoint x="934.5" y="-1251" as="targetPoint" />
          </mxGeometry>
        </mxCell>
        <mxCell id="bJePmw3YO0TLyzTxLK3B-35" value="" style="endArrow=none;html=1;rounded=0;" parent="1" edge="1">
          <mxGeometry width="50" height="50" relative="1" as="geometry">
            <mxPoint x="1137.5" y="-1231" as="sourcePoint" />
            <mxPoint x="1137.5" y="-1251" as="targetPoint" />
          </mxGeometry>
        </mxCell>
        <mxCell id="bJePmw3YO0TLyzTxLK3B-36" value="" style="endArrow=none;html=1;rounded=0;" parent="1" edge="1">
          <mxGeometry width="50" height="50" relative="1" as="geometry">
            <mxPoint x="1217.5" y="-1231" as="sourcePoint" />
            <mxPoint x="1217.5" y="-1251" as="targetPoint" />
          </mxGeometry>
        </mxCell>
        <mxCell id="bJePmw3YO0TLyzTxLK3B-37" value="Minio #n" style="sketch=0;pointerEvents=1;shadow=0;dashed=0;html=1;strokeColor=none;labelPosition=center;verticalLabelPosition=bottom;verticalAlign=top;outlineConnect=0;align=center;shape=mxgraph.office.servers.virtual_server;fillColor=#2072B8;fontFamily=Tahoma;fontSize=11;fontStyle=0;container=0;" parent="1" vertex="1">
          <mxGeometry x="921" y="-1231" width="28" height="52" as="geometry" />
        </mxCell>
        <mxCell id="bJePmw3YO0TLyzTxLK3B-38" value="Direct PV #1" style="sketch=0;html=1;dashed=0;whitespace=wrap;fillColor=#2875E2;strokeColor=#ffffff;points=[[0.005,0.63,0],[0.1,0.2,0],[0.9,0.2,0],[0.5,0,0],[0.995,0.63,0],[0.72,0.99,0],[0.5,1,0],[0.28,0.99,0]];verticalLabelPosition=bottom;align=center;verticalAlign=top;shape=mxgraph.kubernetes.icon;prIcon=vol;container=0;" parent="1" vertex="1">
          <mxGeometry x="726" y="-1320" width="50" height="48" as="geometry" />
        </mxCell>
        <mxCell id="bJePmw3YO0TLyzTxLK3B-39" value="Direct PV #2" style="sketch=0;html=1;dashed=0;whitespace=wrap;fillColor=#2875E2;strokeColor=#ffffff;points=[[0.005,0.63,0],[0.1,0.2,0],[0.9,0.2,0],[0.5,0,0],[0.995,0.63,0],[0.72,0.99,0],[0.5,1,0],[0.28,0.99,0]];verticalLabelPosition=bottom;align=center;verticalAlign=top;shape=mxgraph.kubernetes.icon;prIcon=vol;container=0;" parent="1" vertex="1">
          <mxGeometry x="820" y="-1320" width="50" height="48" as="geometry" />
        </mxCell>
        <mxCell id="bJePmw3YO0TLyzTxLK3B-40" value="Direct PV #n" style="sketch=0;html=1;dashed=0;whitespace=wrap;fillColor=#2875E2;strokeColor=#ffffff;points=[[0.005,0.63,0],[0.1,0.2,0],[0.9,0.2,0],[0.5,0,0],[0.995,0.63,0],[0.72,0.99,0],[0.5,1,0],[0.28,0.99,0]];verticalLabelPosition=bottom;align=center;verticalAlign=top;shape=mxgraph.kubernetes.icon;prIcon=vol;container=0;" parent="1" vertex="1">
          <mxGeometry x="910" y="-1320" width="50" height="48" as="geometry" />
        </mxCell>
        <mxCell id="bJePmw3YO0TLyzTxLK3B-41" value="SSD #1" style="sketch=0;html=1;dashed=0;whitespace=wrap;fillColor=#2875E2;strokeColor=#ffffff;points=[[0.005,0.63,0],[0.1,0.2,0],[0.9,0.2,0],[0.5,0,0],[0.995,0.63,0],[0.72,0.99,0],[0.5,1,0],[0.28,0.99,0]];verticalLabelPosition=bottom;align=center;verticalAlign=top;shape=mxgraph.kubernetes.icon;prIcon=pvc;container=0;" parent="1" vertex="1">
          <mxGeometry x="1111" y="-1323" width="50" height="48" as="geometry" />
        </mxCell>
        <mxCell id="bJePmw3YO0TLyzTxLK3B-42" value="SSD #n" style="sketch=0;html=1;dashed=0;whitespace=wrap;fillColor=#2875E2;strokeColor=#ffffff;points=[[0.005,0.63,0],[0.1,0.2,0],[0.9,0.2,0],[0.5,0,0],[0.995,0.63,0],[0.72,0.99,0],[0.5,1,0],[0.28,0.99,0]];verticalLabelPosition=bottom;align=center;verticalAlign=top;shape=mxgraph.kubernetes.icon;prIcon=pvc;container=0;" parent="1" vertex="1">
          <mxGeometry x="1193" y="-1323" width="50" height="48" as="geometry" />
        </mxCell>
        <mxCell id="bJePmw3YO0TLyzTxLK3B-43" value="hdfs #1" style="sketch=0;pointerEvents=1;shadow=0;dashed=0;html=1;strokeColor=none;labelPosition=center;verticalLabelPosition=bottom;verticalAlign=top;outlineConnect=0;align=center;shape=mxgraph.office.servers.virtual_server;fillColor=#2072B8;fontFamily=Tahoma;fontSize=11;fontStyle=0;container=0;" parent="1" vertex="1">
          <mxGeometry x="1123" y="-1235" width="28" height="52" as="geometry" />
        </mxCell>
        <mxCell id="bJePmw3YO0TLyzTxLK3B-44" value="hdfs #n" style="sketch=0;pointerEvents=1;shadow=0;dashed=0;html=1;strokeColor=none;labelPosition=center;verticalLabelPosition=bottom;verticalAlign=top;outlineConnect=0;align=center;shape=mxgraph.office.servers.virtual_server;fillColor=#2072B8;fontFamily=Tahoma;fontSize=11;fontStyle=0;container=0;" parent="1" vertex="1">
          <mxGeometry x="1203" y="-1235" width="28" height="52" as="geometry" />
        </mxCell>
        <mxCell id="bJePmw3YO0TLyzTxLK3B-45" value="" style="rounded=1;whiteSpace=wrap;html=1;opacity=20;glass=0;fillColor=#ffe6cc;strokeColor=#d79b00;container=0;" parent="1" vertex="1">
          <mxGeometry x="670" y="-1340" width="340" height="196" as="geometry" />
        </mxCell>
        <mxCell id="bJePmw3YO0TLyzTxLK3B-46" value="" style="rounded=1;whiteSpace=wrap;html=1;opacity=20;glass=0;fillColor=#f8cecc;strokeColor=#b85450;container=0;" parent="1" vertex="1">
          <mxGeometry x="1064" y="-1340" width="229" height="196" as="geometry" />
        </mxCell>
        <mxCell id="bJePmw3YO0TLyzTxLK3B-47" value="Tenant #1" style="text;html=1;strokeColor=none;fillColor=none;align=center;verticalAlign=middle;whiteSpace=wrap;rounded=0;fontStyle=1;container=0;" parent="1" vertex="1">
          <mxGeometry x="674.5" y="-1339" width="60" height="30" as="geometry" />
        </mxCell>
        <mxCell id="bJePmw3YO0TLyzTxLK3B-48" value="Tenant #2" style="text;html=1;strokeColor=none;fillColor=none;align=center;verticalAlign=middle;whiteSpace=wrap;rounded=0;fontStyle=1;container=0;" parent="1" vertex="1">
          <mxGeometry x="1072" y="-1340" width="60" height="30" as="geometry" />
        </mxCell>
        <mxCell id="bJePmw3YO0TLyzTxLK3B-49" value="Minio #1" style="sketch=0;pointerEvents=1;shadow=0;dashed=0;html=1;strokeColor=none;labelPosition=center;verticalLabelPosition=bottom;verticalAlign=top;outlineConnect=0;align=center;shape=mxgraph.office.servers.virtual_server;fillColor=#2072B8;fontFamily=Tahoma;fontSize=11;fontStyle=0;fillStyle=auto;container=0;" parent="1" vertex="1">
          <mxGeometry x="737" y="-1231" width="28" height="52" as="geometry" />
        </mxCell>
        <mxCell id="bJePmw3YO0TLyzTxLK3B-50" value="Minio #2" style="sketch=0;pointerEvents=1;shadow=0;dashed=0;html=1;strokeColor=none;labelPosition=center;verticalLabelPosition=bottom;verticalAlign=top;outlineConnect=0;align=center;shape=mxgraph.office.servers.virtual_server;fillColor=#2072B8;fontFamily=Tahoma;fontSize=11;fontStyle=0;container=0;" parent="1" vertex="1">
          <mxGeometry x="831" y="-1231" width="28" height="52" as="geometry" />
        </mxCell>
        <mxCell id="bJePmw3YO0TLyzTxLK3B-51" value="" style="endArrow=none;html=1;rounded=0;" parent="1" edge="1">
          <mxGeometry width="50" height="50" relative="1" as="geometry">
            <mxPoint x="752" y="-1231" as="sourcePoint" />
            <mxPoint x="752" y="-1251" as="targetPoint" />
          </mxGeometry>
        </mxCell>
        <mxCell id="bJePmw3YO0TLyzTxLK3B-52" value="" style="endArrow=none;html=1;rounded=0;" parent="1" edge="1">
          <mxGeometry width="50" height="50" relative="1" as="geometry">
            <mxPoint x="844.5" y="-1231" as="sourcePoint" />
            <mxPoint x="844.5" y="-1251" as="targetPoint" />
          </mxGeometry>
        </mxCell>
        <mxCell id="bJePmw3YO0TLyzTxLK3B-59" value="" style="endArrow=none;html=1;rounded=0;" parent="1" edge="1">
          <mxGeometry width="50" height="50" relative="1" as="geometry">
            <mxPoint x="1338" y="-1250" as="sourcePoint" />
            <mxPoint x="1338" y="-1490" as="targetPoint" />
          </mxGeometry>
        </mxCell>
        <mxCell id="bJePmw3YO0TLyzTxLK3B-60" value="" style="endArrow=none;html=1;rounded=0;" parent="1" edge="1">
          <mxGeometry width="50" height="50" relative="1" as="geometry">
            <mxPoint x="1338" y="-1110" as="sourcePoint" />
            <mxPoint x="1338" y="-1250" as="targetPoint" />
          </mxGeometry>
        </mxCell>
        <mxCell id="bJePmw3YO0TLyzTxLK3B-61" value="" style="rounded=1;whiteSpace=wrap;html=1;opacity=40;glass=0;fillColor=#d5e8d4;strokeColor=#82b366;container=0;" parent="1" vertex="1">
          <mxGeometry x="897" y="-1240" width="270" height="100" as="geometry" />
        </mxCell>
        <mxCell id="bJePmw3YO0TLyzTxLK3B-62" value="Tenant #n" style="text;html=1;strokeColor=none;fillColor=none;align=center;verticalAlign=middle;whiteSpace=wrap;rounded=0;fontStyle=1;container=0;" parent="1" vertex="1">
          <mxGeometry x="1005" y="-1241" width="60" height="30" as="geometry" />
        </mxCell>
        <mxCell id="bJePmw3YO0TLyzTxLK3B-63" style="edgeStyle=orthogonalEdgeStyle;rounded=0;orthogonalLoop=1;jettySize=auto;html=1;fontFamily=Tahoma;fontSize=11;endArrow=none;endFill=0;fontStyle=0" parent="1" edge="1">
          <mxGeometry relative="1" as="geometry">
            <mxPoint x="856.5" y="-809" as="targetPoint" />
            <mxPoint x="856.5" y="-779" as="sourcePoint" />
          </mxGeometry>
        </mxCell>
        <mxCell id="bJePmw3YO0TLyzTxLK3B-64" style="edgeStyle=orthogonalEdgeStyle;rounded=0;orthogonalLoop=1;jettySize=auto;html=1;fontFamily=Tahoma;fontSize=11;endArrow=none;endFill=0;fontStyle=0" parent="1" edge="1">
          <mxGeometry relative="1" as="geometry">
            <mxPoint x="1086" y="-809" as="targetPoint" />
            <mxPoint x="1086" y="-779" as="sourcePoint" />
          </mxGeometry>
        </mxCell>
        <mxCell id="bJePmw3YO0TLyzTxLK3B-65" style="edgeStyle=orthogonalEdgeStyle;rounded=0;orthogonalLoop=1;jettySize=auto;html=1;fontFamily=Tahoma;fontSize=11;endArrow=none;endFill=0;fontStyle=0" parent="1" edge="1">
          <mxGeometry relative="1" as="geometry">
            <mxPoint x="1198" y="-809" as="targetPoint" />
            <mxPoint x="1198" y="-779" as="sourcePoint" />
          </mxGeometry>
        </mxCell>
        <mxCell id="bJePmw3YO0TLyzTxLK3B-66" value="" style="shape=link;html=1;rounded=0;fontFamily=Tahoma;fontSize=11;fontStyle=1;fillColor=#dae8fc;strokeColor=#6c8ebf;" parent="1" edge="1">
          <mxGeometry width="100" relative="1" as="geometry">
            <mxPoint x="620" y="-809" as="sourcePoint" />
            <mxPoint x="1370" y="-809" as="targetPoint" />
          </mxGeometry>
        </mxCell>
        <mxCell id="bJePmw3YO0TLyzTxLK3B-67" value="Workers" style="edgeLabel;html=1;align=center;verticalAlign=middle;resizable=0;points=[];fontSize=11;fontFamily=Tahoma;fontStyle=1;container=0;" parent="bJePmw3YO0TLyzTxLK3B-66" vertex="1" connectable="0">
          <mxGeometry x="0.6492" y="1" relative="1" as="geometry">
            <mxPoint x="-545" as="offset" />
          </mxGeometry>
        </mxCell>
        <mxCell id="bJePmw3YO0TLyzTxLK3B-68" style="edgeStyle=orthogonalEdgeStyle;rounded=0;orthogonalLoop=1;jettySize=auto;html=1;fontFamily=Tahoma;fontSize=11;endArrow=none;endFill=0;fontStyle=0" parent="1" edge="1">
          <mxGeometry relative="1" as="geometry">
            <mxPoint x="974" y="-809" as="targetPoint" />
            <mxPoint x="974" y="-779" as="sourcePoint" />
          </mxGeometry>
        </mxCell>
        <mxCell id="bJePmw3YO0TLyzTxLK3B-69" style="edgeStyle=orthogonalEdgeStyle;rounded=0;orthogonalLoop=1;jettySize=auto;html=1;fontFamily=Tahoma;fontSize=11;endArrow=none;endFill=0;fontStyle=0" parent="1" edge="1">
          <mxGeometry relative="1" as="geometry">
            <mxPoint x="1302" y="-809" as="targetPoint" />
            <mxPoint x="1302" y="-779" as="sourcePoint" />
          </mxGeometry>
        </mxCell>
        <mxCell id="bJePmw3YO0TLyzTxLK3B-70" style="edgeStyle=orthogonalEdgeStyle;rounded=0;orthogonalLoop=1;jettySize=auto;html=1;fontFamily=Tahoma;fontSize=11;endArrow=none;endFill=0;fontStyle=0" parent="1" edge="1">
          <mxGeometry relative="1" as="geometry">
            <mxPoint x="744" y="-809" as="targetPoint" />
            <mxPoint x="744" y="-779" as="sourcePoint" />
          </mxGeometry>
        </mxCell>
        <mxCell id="bJePmw3YO0TLyzTxLK3B-83" value="Spark &lt;br&gt;executors #1" style="sketch=0;pointerEvents=1;shadow=0;dashed=0;html=1;strokeColor=none;labelPosition=center;verticalLabelPosition=bottom;verticalAlign=top;outlineConnect=0;align=center;shape=mxgraph.office.servers.virtual_server;fillColor=#2072B8;fontFamily=Tahoma;fontSize=11;fontStyle=0;container=0;" parent="1" vertex="1">
          <mxGeometry x="731" y="-779" width="28" height="52" as="geometry" />
        </mxCell>
        <mxCell id="bJePmw3YO0TLyzTxLK3B-84" value="Spark &lt;br&gt;executors #n" style="sketch=0;pointerEvents=1;shadow=0;dashed=0;html=1;strokeColor=none;labelPosition=center;verticalLabelPosition=bottom;verticalAlign=top;outlineConnect=0;align=center;shape=mxgraph.office.servers.virtual_server;fillColor=#2072B8;fontFamily=Tahoma;fontSize=11;fontStyle=0;container=0;" parent="1" vertex="1">
          <mxGeometry x="842" y="-779" width="28" height="52" as="geometry" />
        </mxCell>
        <mxCell id="bJePmw3YO0TLyzTxLK3B-85" value="Airflow&lt;br&gt;Workers #1" style="sketch=0;pointerEvents=1;shadow=0;dashed=0;html=1;strokeColor=none;labelPosition=center;verticalLabelPosition=bottom;verticalAlign=top;outlineConnect=0;align=center;shape=mxgraph.office.servers.virtual_server;fillColor=#2072B8;fontFamily=Tahoma;fontSize=11;fontStyle=0;container=0;" parent="1" vertex="1">
          <mxGeometry x="960" y="-779" width="28" height="52" as="geometry" />
        </mxCell>
        <mxCell id="bJePmw3YO0TLyzTxLK3B-86" value="Airflow&lt;br&gt;Workers #n" style="sketch=0;pointerEvents=1;shadow=0;dashed=0;html=1;strokeColor=none;labelPosition=center;verticalLabelPosition=bottom;verticalAlign=top;outlineConnect=0;align=center;shape=mxgraph.office.servers.virtual_server;fillColor=#2072B8;fontFamily=Tahoma;fontSize=11;fontStyle=0;container=0;" parent="1" vertex="1">
          <mxGeometry x="1072" y="-779" width="28" height="52" as="geometry" />
        </mxCell>
        <mxCell id="bJePmw3YO0TLyzTxLK3B-87" value="ML&lt;br&gt;Workers #1" style="sketch=0;pointerEvents=1;shadow=0;dashed=0;html=1;strokeColor=none;labelPosition=center;verticalLabelPosition=bottom;verticalAlign=top;outlineConnect=0;align=center;shape=mxgraph.office.servers.virtual_server;fillColor=#2072B8;fontFamily=Tahoma;fontSize=11;fontStyle=0;container=0;" parent="1" vertex="1">
          <mxGeometry x="1184" y="-779" width="28" height="52" as="geometry" />
        </mxCell>
        <mxCell id="bJePmw3YO0TLyzTxLK3B-88" value="ML&lt;br&gt;Workers #n" style="sketch=0;pointerEvents=1;shadow=0;dashed=0;html=1;strokeColor=none;labelPosition=center;verticalLabelPosition=bottom;verticalAlign=top;outlineConnect=0;align=center;shape=mxgraph.office.servers.virtual_server;fillColor=#2072B8;fontFamily=Tahoma;fontSize=11;fontStyle=0;container=0;" parent="1" vertex="1">
          <mxGeometry x="1288" y="-777" width="28" height="52" as="geometry" />
        </mxCell>
        <mxCell id="bJePmw3YO0TLyzTxLK3B-89" value="&lt;span style=&quot;font-weight: normal;&quot;&gt;Work&lt;br&gt;Operators #1&lt;/span&gt;" style="sketch=0;pointerEvents=1;shadow=0;dashed=0;html=1;strokeColor=none;fillColor=#505050;labelPosition=center;verticalLabelPosition=bottom;verticalAlign=top;outlineConnect=0;align=center;shape=mxgraph.office.servers.virtual_server;fontFamily=Tahoma;fontSize=11;fontStyle=1;container=0;" parent="1" vertex="1">
          <mxGeometry x="730" y="-930" width="28" height="52" as="geometry" />
        </mxCell>
        <mxCell id="bJePmw3YO0TLyzTxLK3B-90" value="&lt;span style=&quot;font-weight: normal;&quot;&gt;Work&lt;br&gt;Operators #1&lt;/span&gt;" style="sketch=0;pointerEvents=1;shadow=0;dashed=0;html=1;strokeColor=none;fillColor=#505050;labelPosition=center;verticalLabelPosition=bottom;verticalAlign=top;outlineConnect=0;align=center;shape=mxgraph.office.servers.virtual_server;fontFamily=Tahoma;fontSize=11;fontStyle=1;container=0;" parent="1" vertex="1">
          <mxGeometry x="840" y="-930" width="28" height="52" as="geometry" />
        </mxCell>
        <mxCell id="bJePmw3YO0TLyzTxLK3B-91" value="&lt;span style=&quot;font-weight: normal;&quot;&gt;Work&lt;br&gt;Operators #1&lt;/span&gt;" style="sketch=0;pointerEvents=1;shadow=0;dashed=0;html=1;strokeColor=none;fillColor=#505050;labelPosition=center;verticalLabelPosition=bottom;verticalAlign=top;outlineConnect=0;align=center;shape=mxgraph.office.servers.virtual_server;fontFamily=Tahoma;fontSize=11;fontStyle=1;container=0;" parent="1" vertex="1">
          <mxGeometry x="940" y="-930" width="28" height="52" as="geometry" />
        </mxCell>
        <mxCell id="bJePmw3YO0TLyzTxLK3B-92" value="" style="endArrow=none;html=1;rounded=0;" parent="1" edge="1">
          <mxGeometry width="50" height="50" relative="1" as="geometry">
            <mxPoint x="640" y="-810" as="sourcePoint" />
            <mxPoint x="640" y="-1109.5" as="targetPoint" />
          </mxGeometry>
        </mxCell>
        <mxCell id="bJePmw3YO0TLyzTxLK3B-93" value="" style="endArrow=none;html=1;rounded=0;" parent="1" edge="1">
          <mxGeometry width="50" height="50" relative="1" as="geometry">
            <mxPoint x="1338" y="-810" as="sourcePoint" />
            <mxPoint x="1338" y="-1109.5" as="targetPoint" />
          </mxGeometry>
        </mxCell>
        <mxCell id="bJePmw3YO0TLyzTxLK3B-96" value="" style="endArrow=none;html=1;rounded=0;" parent="1" edge="1">
          <mxGeometry width="50" height="50" relative="1" as="geometry">
            <mxPoint x="744" y="-840" as="sourcePoint" />
            <mxPoint x="744" y="-810" as="targetPoint" />
          </mxGeometry>
        </mxCell>
        <mxCell id="bJePmw3YO0TLyzTxLK3B-97" value="" style="endArrow=none;html=1;rounded=0;" parent="1" edge="1">
          <mxGeometry width="50" height="50" relative="1" as="geometry">
            <mxPoint x="855" y="-840" as="sourcePoint" />
            <mxPoint x="855" y="-810" as="targetPoint" />
          </mxGeometry>
        </mxCell>
        <mxCell id="bJePmw3YO0TLyzTxLK3B-99" value="" style="endArrow=none;html=1;rounded=0;" parent="1" edge="1">
          <mxGeometry width="50" height="50" relative="1" as="geometry">
            <mxPoint x="953" y="-840" as="sourcePoint" />
            <mxPoint x="953" y="-810" as="targetPoint" />
          </mxGeometry>
        </mxCell>
        <mxCell id="w2l174Xh_j5TS_qFz10p-3" value="" style="shape=waypoint;sketch=0;size=6;pointerEvents=1;points=[];fillColor=#FAFAFA;resizable=0;rotatable=0;perimeter=centerPerimeter;snapToPoint=1;fontSize=11;fontFamily=Tahoma;verticalAlign=top;strokeColor=#005073;fontStyle=1;container=0;" parent="1" vertex="1">
          <mxGeometry x="552.5" y="-1343" width="20" height="20" as="geometry" />
        </mxCell>
        <mxCell id="w2l174Xh_j5TS_qFz10p-4" value="" style="edgeStyle=orthogonalEdgeStyle;rounded=0;orthogonalLoop=1;jettySize=auto;html=1;flowAnimation=1;" parent="1" source="kw6kMB2n_E4hMTKtBwWy-56" target="w2l174Xh_j5TS_qFz10p-3" edge="1">
          <mxGeometry relative="1" as="geometry" />
        </mxCell>
        <mxCell id="w2l174Xh_j5TS_qFz10p-7" value="" style="shape=link;html=1;rounded=0;fontFamily=Tahoma;fontSize=11;fillColor=#f8cecc;strokeColor=#b85450;fontStyle=1" parent="1" target="w2l174Xh_j5TS_qFz10p-6" edge="1">
          <mxGeometry width="100" relative="1" as="geometry">
            <mxPoint x="240" y="-1062" as="sourcePoint" />
            <mxPoint x="613" y="-1062" as="targetPoint" />
          </mxGeometry>
        </mxCell>
        <mxCell id="w2l174Xh_j5TS_qFz10p-6" value="Group network" style="text;html=1;strokeColor=none;fillColor=none;align=center;verticalAlign=middle;whiteSpace=wrap;rounded=0;fontStyle=0;container=0;" parent="1" vertex="1">
          <mxGeometry x="246" y="-1079" width="60" height="30" as="geometry" />
        </mxCell>
        <mxCell id="w2l174Xh_j5TS_qFz10p-14" style="edgeStyle=orthogonalEdgeStyle;rounded=0;orthogonalLoop=1;jettySize=auto;html=1;fontFamily=Tahoma;fontSize=11;endArrow=none;endFill=0;fontStyle=0;flowAnimation=1;" parent="1" target="kw6kMB2n_E4hMTKtBwWy-53" edge="1">
          <mxGeometry relative="1" as="geometry">
            <mxPoint x="301.5" y="-959.5" as="sourcePoint" />
            <mxPoint x="540.5" y="-959.5" as="targetPoint" />
          </mxGeometry>
        </mxCell>
        <mxCell id="w2l174Xh_j5TS_qFz10p-15" value="" style="endArrow=none;html=1;rounded=0;entryX=0.625;entryY=1;entryDx=0;entryDy=0;entryPerimeter=0;flowAnimation=1;" parent="1" target="w2l174Xh_j5TS_qFz10p-3" edge="1">
          <mxGeometry width="50" height="50" relative="1" as="geometry">
            <mxPoint x="563" y="-1080" as="sourcePoint" />
            <mxPoint x="613" y="-1130" as="targetPoint" />
          </mxGeometry>
        </mxCell>
        <mxCell id="w2l174Xh_j5TS_qFz10p-18" style="edgeStyle=orthogonalEdgeStyle;rounded=0;orthogonalLoop=1;jettySize=auto;html=1;fontFamily=Tahoma;fontSize=11;endArrow=none;endFill=0;fontStyle=0" parent="1" edge="1">
          <mxGeometry relative="1" as="geometry">
            <mxPoint x="856.5" y="-622" as="targetPoint" />
            <mxPoint x="856.5" y="-592" as="sourcePoint" />
          </mxGeometry>
        </mxCell>
        <mxCell id="w2l174Xh_j5TS_qFz10p-19" style="edgeStyle=orthogonalEdgeStyle;rounded=0;orthogonalLoop=1;jettySize=auto;html=1;fontFamily=Tahoma;fontSize=11;endArrow=none;endFill=0;fontStyle=0" parent="1" edge="1">
          <mxGeometry relative="1" as="geometry">
            <mxPoint x="1086" y="-622" as="targetPoint" />
            <mxPoint x="1086" y="-592" as="sourcePoint" />
          </mxGeometry>
        </mxCell>
        <mxCell id="w2l174Xh_j5TS_qFz10p-20" style="edgeStyle=orthogonalEdgeStyle;rounded=0;orthogonalLoop=1;jettySize=auto;html=1;fontFamily=Tahoma;fontSize=11;endArrow=none;endFill=0;fontStyle=0" parent="1" edge="1">
          <mxGeometry relative="1" as="geometry">
            <mxPoint x="1198" y="-622" as="targetPoint" />
            <mxPoint x="1198" y="-592" as="sourcePoint" />
          </mxGeometry>
        </mxCell>
        <mxCell id="w2l174Xh_j5TS_qFz10p-21" value="" style="shape=link;html=1;rounded=0;fontFamily=Tahoma;fontSize=11;fontStyle=1;fillColor=#dae8fc;strokeColor=#6c8ebf;" parent="1" edge="1">
          <mxGeometry width="100" relative="1" as="geometry">
            <mxPoint x="620" y="-622" as="sourcePoint" />
            <mxPoint x="1370" y="-622" as="targetPoint" />
          </mxGeometry>
        </mxCell>
        <mxCell id="w2l174Xh_j5TS_qFz10p-22" value="Managers" style="edgeLabel;html=1;align=center;verticalAlign=middle;resizable=0;points=[];fontSize=11;fontFamily=Tahoma;fontStyle=1;container=0;" parent="w2l174Xh_j5TS_qFz10p-21" vertex="1" connectable="0">
          <mxGeometry x="0.6492" y="1" relative="1" as="geometry">
            <mxPoint x="-545" as="offset" />
          </mxGeometry>
        </mxCell>
        <mxCell id="w2l174Xh_j5TS_qFz10p-23" style="edgeStyle=orthogonalEdgeStyle;rounded=0;orthogonalLoop=1;jettySize=auto;html=1;fontFamily=Tahoma;fontSize=11;endArrow=none;endFill=0;fontStyle=0" parent="1" edge="1">
          <mxGeometry relative="1" as="geometry">
            <mxPoint x="974" y="-622" as="targetPoint" />
            <mxPoint x="974" y="-592" as="sourcePoint" />
          </mxGeometry>
        </mxCell>
        <mxCell id="w2l174Xh_j5TS_qFz10p-24" style="edgeStyle=orthogonalEdgeStyle;rounded=0;orthogonalLoop=1;jettySize=auto;html=1;fontFamily=Tahoma;fontSize=11;endArrow=none;endFill=0;fontStyle=0" parent="1" edge="1">
          <mxGeometry relative="1" as="geometry">
            <mxPoint x="1312" y="-622" as="targetPoint" />
            <mxPoint x="1312" y="-592" as="sourcePoint" />
          </mxGeometry>
        </mxCell>
        <mxCell id="w2l174Xh_j5TS_qFz10p-25" style="edgeStyle=orthogonalEdgeStyle;rounded=0;orthogonalLoop=1;jettySize=auto;html=1;fontFamily=Tahoma;fontSize=11;endArrow=none;endFill=0;fontStyle=0" parent="1" edge="1">
          <mxGeometry relative="1" as="geometry">
            <mxPoint x="744" y="-622" as="targetPoint" />
            <mxPoint x="744" y="-592" as="sourcePoint" />
          </mxGeometry>
        </mxCell>
        <mxCell id="w2l174Xh_j5TS_qFz10p-26" value="Rancher #n" style="sketch=0;pointerEvents=1;shadow=0;dashed=0;html=1;strokeColor=none;labelPosition=center;verticalLabelPosition=bottom;verticalAlign=top;outlineConnect=0;align=center;shape=mxgraph.office.servers.virtual_server;fillColor=#2072B8;fontFamily=Tahoma;fontSize=11;fontStyle=0;container=0;" parent="1" vertex="1">
          <mxGeometry x="731" y="-592" width="28" height="52" as="geometry" />
        </mxCell>
        <mxCell id="w2l174Xh_j5TS_qFz10p-27" value="Grafana" style="sketch=0;pointerEvents=1;shadow=0;dashed=0;html=1;strokeColor=none;labelPosition=center;verticalLabelPosition=bottom;verticalAlign=top;outlineConnect=0;align=center;shape=mxgraph.office.servers.virtual_server;fillColor=#2072B8;fontFamily=Tahoma;fontSize=11;fontStyle=0;container=0;" parent="1" vertex="1">
          <mxGeometry x="842" y="-592" width="28" height="52" as="geometry" />
        </mxCell>
        <mxCell id="w2l174Xh_j5TS_qFz10p-28" value="Schedulers #n" style="sketch=0;pointerEvents=1;shadow=0;dashed=0;html=1;strokeColor=none;labelPosition=center;verticalLabelPosition=bottom;verticalAlign=top;outlineConnect=0;align=center;shape=mxgraph.office.servers.virtual_server;fillColor=#2072B8;fontFamily=Tahoma;fontSize=11;fontStyle=0;container=0;" parent="1" vertex="1">
          <mxGeometry x="960" y="-592" width="28" height="52" as="geometry" />
        </mxCell>
        <mxCell id="w2l174Xh_j5TS_qFz10p-29" value="Traefik #n" style="sketch=0;pointerEvents=1;shadow=0;dashed=0;html=1;strokeColor=none;labelPosition=center;verticalLabelPosition=bottom;verticalAlign=top;outlineConnect=0;align=center;shape=mxgraph.office.servers.virtual_server;fillColor=#2072B8;fontFamily=Tahoma;fontSize=11;fontStyle=0;container=0;" parent="1" vertex="1">
          <mxGeometry x="1072" y="-592" width="28" height="52" as="geometry" />
        </mxCell>
        <mxCell id="w2l174Xh_j5TS_qFz10p-30" value="Kube-ops #n" style="sketch=0;pointerEvents=1;shadow=0;dashed=0;html=1;strokeColor=none;labelPosition=center;verticalLabelPosition=bottom;verticalAlign=top;outlineConnect=0;align=center;shape=mxgraph.office.servers.virtual_server;fillColor=#2072B8;fontFamily=Tahoma;fontSize=11;fontStyle=0;container=0;" parent="1" vertex="1">
          <mxGeometry x="1184" y="-592" width="28" height="52" as="geometry" />
        </mxCell>
        <mxCell id="w2l174Xh_j5TS_qFz10p-31" value="Ingress Routers #n" style="sketch=0;pointerEvents=1;shadow=0;dashed=0;html=1;strokeColor=none;labelPosition=center;verticalLabelPosition=bottom;verticalAlign=top;outlineConnect=0;align=center;shape=mxgraph.office.servers.virtual_server;fillColor=#2072B8;fontFamily=Tahoma;fontSize=11;fontStyle=0;container=0;" parent="1" vertex="1">
          <mxGeometry x="1298" y="-590" width="28" height="52" as="geometry" />
        </mxCell>
        <mxCell id="w2l174Xh_j5TS_qFz10p-33" value="" style="endArrow=none;html=1;rounded=0;" parent="1" edge="1">
          <mxGeometry width="50" height="50" relative="1" as="geometry">
            <mxPoint x="640" y="-620" as="sourcePoint" />
            <mxPoint x="640" y="-810" as="targetPoint" />
          </mxGeometry>
        </mxCell>
        <mxCell id="w2l174Xh_j5TS_qFz10p-34" value="" style="endArrow=none;html=1;rounded=0;" parent="1" edge="1">
          <mxGeometry width="50" height="50" relative="1" as="geometry">
            <mxPoint x="1338" y="-620" as="sourcePoint" />
            <mxPoint x="1338" y="-808" as="targetPoint" />
          </mxGeometry>
        </mxCell>
        <mxCell id="w2l174Xh_j5TS_qFz10p-44" value="" style="strokeColor=#dddddd;shadow=1;strokeWidth=1;rounded=1;absoluteArcSize=1;arcSize=2;container=0;" parent="1" vertex="1">
          <mxGeometry x="720" y="-680" width="570" height="43" as="geometry" />
        </mxCell>
        <mxCell id="w2l174Xh_j5TS_qFz10p-46" value="" style="editableCssRules=.*;html=1;shape=image;verticalLabelPosition=bottom;labelBackgroundColor=#ffffff;verticalAlign=top;aspect=fixed;imageAspect=0;image=data:image/svg+xml,PHN2ZyB4bWxucz0iaHR0cDovL3d3dy53My5vcmcvMjAwMC9zdmciIHhtbG5zOnY9Imh0dHBzOi8vdmVjdGEuaW8vbmFubyIgd2lkdGg9IjIwIiBoZWlnaHQ9IjIwIiB2aWV3Qm94PSIwIDAgMjAgMjAiPiYjeGE7CTxzdHlsZSB0eXBlPSJ0ZXh0L2NzcyI+JiN4YTsJLnN0MHtmaWxsOiM0Mjg1ZjQ7fSYjeGE7CTwvc3R5bGU+JiN4YTsJPHBhdGggY2xhc3M9InN0MCIgZD0iTTEzLjMzIDB2Mi4zOGgtMi4xNlYwSDguODN2Mi4zOEg2LjY3VjBINC4yOXYyLjM4YTIgMiAwIDAgMC0xLjkxIDEuOTFIMHYyLjM4aDIuMzh2Mi4xNEgwdjIuMzhoMi4zOHYyLjE0SDB2Mi4zOGgyLjM4YTIgMiAwIDAgMCAxLjkxIDEuOTFWMjBoMi4zOHYtMi4zOGgyLjE2VjIwaDIuMzR2LTIuMzhoMi4xNlYyMGgyLjM4di0yLjM4YTIgMiAwIDAgMCAxLjkxLTEuOTFIMjB2LTIuMzhoLTIuMzh2LTIuMTRIMjBWOC44MWgtMi4zOFY2LjY3SDIwVjQuMjloLTIuMzhhMiAyIDAgMCAwLTEuOTEtMS45MVYwem0xLjUzIDE1LjI0SDUuMTRhLjM4LjM4IDAgMCAxLS4zOC0uMzhWNS4xNGEuMzguMzggMCAwIDEgLjM4LS4zOGg5LjcyYS4zOC4zOCAwIDAgMSAuMzguMzh2OS43MmEuMzguMzggMCAwIDEtLjM4LjM4em0tMi4wNy02LjEybC0zLjUgNC44NnYtMy42M0g3LjIybDMuNjEtNC44MXYzLjU4eiIvPiYjeGE7PC9zdmc+;container=0;" parent="1" vertex="1">
          <mxGeometry x="756.5" y="-671.75" width="28.5" height="28.5" as="geometry" />
        </mxCell>
        <mxCell id="w2l174Xh_j5TS_qFz10p-47" value="" style="editableCssRules=.*;html=1;shape=image;verticalLabelPosition=bottom;labelBackgroundColor=#ffffff;verticalAlign=top;aspect=fixed;imageAspect=0;image=data:image/svg+xml,PHN2ZyB4bWxucz0iaHR0cDovL3d3dy53My5vcmcvMjAwMC9zdmciIHhtbG5zOnY9Imh0dHBzOi8vdmVjdGEuaW8vbmFubyIgd2lkdGg9IjIwIiBoZWlnaHQ9IjIwIiB2aWV3Qm94PSIwIDAgMjAgMjAiPiYjeGE7CTxzdHlsZSB0eXBlPSJ0ZXh0L2NzcyI+JiN4YTsJLnN0MHtmaWxsOiM0Mjg1ZjQ7fSYjeGE7CTwvc3R5bGU+JiN4YTsJPHBhdGggY2xhc3M9InN0MCIgZD0iTTEzLjMzIDB2Mi4zOGgtMi4xNlYwSDguODN2Mi4zOEg2LjY3VjBINC4yOXYyLjM4YTIgMiAwIDAgMC0xLjkxIDEuOTFIMHYyLjM4aDIuMzh2Mi4xNEgwdjIuMzhoMi4zOHYyLjE0SDB2Mi4zOGgyLjM4YTIgMiAwIDAgMCAxLjkxIDEuOTFWMjBoMi4zOHYtMi4zOGgyLjE2VjIwaDIuMzR2LTIuMzhoMi4xNlYyMGgyLjM4di0yLjM4YTIgMiAwIDAgMCAxLjkxLTEuOTFIMjB2LTIuMzhoLTIuMzh2LTIuMTRIMjBWOC44MWgtMi4zOFY2LjY3SDIwVjQuMjloLTIuMzhhMiAyIDAgMCAwLTEuOTEtMS45MVYwem0xLjUzIDE1LjI0SDUuMTRhLjM4LjM4IDAgMCAxLS4zOC0uMzhWNS4xNGEuMzguMzggMCAwIDEgLjM4LS4zOGg5LjcyYS4zOC4zOCAwIDAgMSAuMzguMzh2OS43MmEuMzguMzggMCAwIDEtLjM4LjM4em0tMi4wNy02LjEybC0zLjUgNC44NnYtMy42M0g3LjIybDMuNjEtNC44MXYzLjU4eiIvPiYjeGE7PC9zdmc+;container=0;" parent="1" vertex="1">
          <mxGeometry x="875" y="-671.75" width="28.5" height="28.5" as="geometry" />
        </mxCell>
        <mxCell id="w2l174Xh_j5TS_qFz10p-48" value="" style="editableCssRules=.*;html=1;shape=image;verticalLabelPosition=bottom;labelBackgroundColor=#ffffff;verticalAlign=top;aspect=fixed;imageAspect=0;image=data:image/svg+xml,PHN2ZyB4bWxucz0iaHR0cDovL3d3dy53My5vcmcvMjAwMC9zdmciIHhtbG5zOnY9Imh0dHBzOi8vdmVjdGEuaW8vbmFubyIgd2lkdGg9IjIwIiBoZWlnaHQ9IjIwIiB2aWV3Qm94PSIwIDAgMjAgMjAiPiYjeGE7CTxzdHlsZSB0eXBlPSJ0ZXh0L2NzcyI+JiN4YTsJLnN0MHtmaWxsOiM0Mjg1ZjQ7fSYjeGE7CTwvc3R5bGU+JiN4YTsJPHBhdGggY2xhc3M9InN0MCIgZD0iTTEzLjMzIDB2Mi4zOGgtMi4xNlYwSDguODN2Mi4zOEg2LjY3VjBINC4yOXYyLjM4YTIgMiAwIDAgMC0xLjkxIDEuOTFIMHYyLjM4aDIuMzh2Mi4xNEgwdjIuMzhoMi4zOHYyLjE0SDB2Mi4zOGgyLjM4YTIgMiAwIDAgMCAxLjkxIDEuOTFWMjBoMi4zOHYtMi4zOGgyLjE2VjIwaDIuMzR2LTIuMzhoMi4xNlYyMGgyLjM4di0yLjM4YTIgMiAwIDAgMCAxLjkxLTEuOTFIMjB2LTIuMzhoLTIuMzh2LTIuMTRIMjBWOC44MWgtMi4zOFY2LjY3SDIwVjQuMjloLTIuMzhhMiAyIDAgMCAwLTEuOTEtMS45MVYwem0xLjUzIDE1LjI0SDUuMTRhLjM4LjM4IDAgMCAxLS4zOC0uMzhWNS4xNGEuMzguMzggMCAwIDEgLjM4LS4zOGg5LjcyYS4zOC4zOCAwIDAgMSAuMzguMzh2OS43MmEuMzguMzggMCAwIDEtLjM4LjM4em0tMi4wNy02LjEybC0zLjUgNC44NnYtMy42M0g3LjIybDMuNjEtNC44MXYzLjU4eiIvPiYjeGE7PC9zdmc+;container=0;" parent="1" vertex="1">
          <mxGeometry x="988" y="-671.75" width="28.5" height="28.5" as="geometry" />
        </mxCell>
        <mxCell id="w2l174Xh_j5TS_qFz10p-49" value="" style="editableCssRules=.*;html=1;shape=image;verticalLabelPosition=bottom;labelBackgroundColor=#ffffff;verticalAlign=top;aspect=fixed;imageAspect=0;image=data:image/svg+xml,PHN2ZyB4bWxucz0iaHR0cDovL3d3dy53My5vcmcvMjAwMC9zdmciIHhtbG5zOnY9Imh0dHBzOi8vdmVjdGEuaW8vbmFubyIgd2lkdGg9IjIwIiBoZWlnaHQ9IjIwIiB2aWV3Qm94PSIwIDAgMjAgMjAiPiYjeGE7CTxzdHlsZSB0eXBlPSJ0ZXh0L2NzcyI+JiN4YTsJLnN0MHtmaWxsOiM0Mjg1ZjQ7fSYjeGE7CTwvc3R5bGU+JiN4YTsJPHBhdGggY2xhc3M9InN0MCIgZD0iTTEzLjMzIDB2Mi4zOGgtMi4xNlYwSDguODN2Mi4zOEg2LjY3VjBINC4yOXYyLjM4YTIgMiAwIDAgMC0xLjkxIDEuOTFIMHYyLjM4aDIuMzh2Mi4xNEgwdjIuMzhoMi4zOHYyLjE0SDB2Mi4zOGgyLjM4YTIgMiAwIDAgMCAxLjkxIDEuOTFWMjBoMi4zOHYtMi4zOGgyLjE2VjIwaDIuMzR2LTIuMzhoMi4xNlYyMGgyLjM4di0yLjM4YTIgMiAwIDAgMCAxLjkxLTEuOTFIMjB2LTIuMzhoLTIuMzh2LTIuMTRIMjBWOC44MWgtMi4zOFY2LjY3SDIwVjQuMjloLTIuMzhhMiAyIDAgMCAwLTEuOTEtMS45MVYwem0xLjUzIDE1LjI0SDUuMTRhLjM4LjM4IDAgMCAxLS4zOC0uMzhWNS4xNGEuMzguMzggMCAwIDEgLjM4LS4zOGg5LjcyYS4zOC4zOCAwIDAgMSAuMzguMzh2OS43MmEuMzguMzggMCAwIDEtLjM4LjM4em0tMi4wNy02LjEybC0zLjUgNC44NnYtMy42M0g3LjIybDMuNjEtNC44MXYzLjU4eiIvPiYjeGE7PC9zdmc+;container=0;" parent="1" vertex="1">
          <mxGeometry x="1104" y="-671.75" width="28.5" height="28.5" as="geometry" />
        </mxCell>
        <mxCell id="w2l174Xh_j5TS_qFz10p-50" value="" style="editableCssRules=.*;html=1;shape=image;verticalLabelPosition=bottom;labelBackgroundColor=#ffffff;verticalAlign=top;aspect=fixed;imageAspect=0;image=data:image/svg+xml,PHN2ZyB4bWxucz0iaHR0cDovL3d3dy53My5vcmcvMjAwMC9zdmciIHhtbG5zOnY9Imh0dHBzOi8vdmVjdGEuaW8vbmFubyIgd2lkdGg9IjIwIiBoZWlnaHQ9IjIwIiB2aWV3Qm94PSIwIDAgMjAgMjAiPiYjeGE7CTxzdHlsZSB0eXBlPSJ0ZXh0L2NzcyI+JiN4YTsJLnN0MHtmaWxsOiM0Mjg1ZjQ7fSYjeGE7CTwvc3R5bGU+JiN4YTsJPHBhdGggY2xhc3M9InN0MCIgZD0iTTEzLjMzIDB2Mi4zOGgtMi4xNlYwSDguODN2Mi4zOEg2LjY3VjBINC4yOXYyLjM4YTIgMiAwIDAgMC0xLjkxIDEuOTFIMHYyLjM4aDIuMzh2Mi4xNEgwdjIuMzhoMi4zOHYyLjE0SDB2Mi4zOGgyLjM4YTIgMiAwIDAgMCAxLjkxIDEuOTFWMjBoMi4zOHYtMi4zOGgyLjE2VjIwaDIuMzR2LTIuMzhoMi4xNlYyMGgyLjM4di0yLjM4YTIgMiAwIDAgMCAxLjkxLTEuOTFIMjB2LTIuMzhoLTIuMzh2LTIuMTRIMjBWOC44MWgtMi4zOFY2LjY3SDIwVjQuMjloLTIuMzhhMiAyIDAgMCAwLTEuOTEtMS45MVYwem0xLjUzIDE1LjI0SDUuMTRhLjM4LjM4IDAgMCAxLS4zOC0uMzhWNS4xNGEuMzguMzggMCAwIDEgLjM4LS4zOGg5LjcyYS4zOC4zOCAwIDAgMSAuMzguMzh2OS43MmEuMzguMzggMCAwIDEtLjM4LjM4em0tMi4wNy02LjEybC0zLjUgNC44NnYtMy42M0g3LjIybDMuNjEtNC44MXYzLjU4eiIvPiYjeGE7PC9zdmc+;container=0;" parent="1" vertex="1">
          <mxGeometry x="1204" y="-671.75" width="28.5" height="28.5" as="geometry" />
        </mxCell>
        <mxCell id="w2l174Xh_j5TS_qFz10p-51" value="GPU #1" style="text;html=1;strokeColor=none;fillColor=none;align=center;verticalAlign=middle;whiteSpace=wrap;rounded=0;fontSize=10;container=0;" parent="1" vertex="1">
          <mxGeometry x="776" y="-673" width="60" height="30" as="geometry" />
        </mxCell>
        <mxCell id="w2l174Xh_j5TS_qFz10p-52" value="GPU #2" style="text;html=1;strokeColor=none;fillColor=none;align=center;verticalAlign=middle;whiteSpace=wrap;rounded=0;fontSize=10;container=0;" parent="1" vertex="1">
          <mxGeometry x="894" y="-673" width="60" height="30" as="geometry" />
        </mxCell>
        <mxCell id="w2l174Xh_j5TS_qFz10p-53" value="GPU #3" style="text;html=1;strokeColor=none;fillColor=none;align=center;verticalAlign=middle;whiteSpace=wrap;rounded=0;fontSize=10;container=0;" parent="1" vertex="1">
          <mxGeometry x="1008" y="-673" width="60" height="30" as="geometry" />
        </mxCell>
        <mxCell id="w2l174Xh_j5TS_qFz10p-54" value="GPU #4" style="text;html=1;strokeColor=none;fillColor=none;align=center;verticalAlign=middle;whiteSpace=wrap;rounded=0;fontSize=10;container=0;" parent="1" vertex="1">
          <mxGeometry x="1122" y="-673" width="60" height="30" as="geometry" />
        </mxCell>
        <mxCell id="w2l174Xh_j5TS_qFz10p-55" value="GPU #n" style="text;html=1;strokeColor=none;fillColor=none;align=center;verticalAlign=middle;whiteSpace=wrap;rounded=0;fontSize=10;container=0;" parent="1" vertex="1">
          <mxGeometry x="1225" y="-673" width="60" height="30" as="geometry" />
        </mxCell>
        <mxCell id="bJePmw3YO0TLyzTxLK3B-1" value="&lt;font style=&quot;font-size: 10px;&quot;&gt;VM Node #1&lt;br&gt;NIC #1 (외부통신용 #1)&lt;br&gt;NIC #2 (클러스터용 #2)&lt;/font&gt;" style="sketch=0;pointerEvents=1;shadow=0;dashed=0;html=1;strokeColor=none;labelPosition=center;verticalLabelPosition=bottom;verticalAlign=top;outlineConnect=0;align=center;shape=mxgraph.office.servers.virtual_server;fillColor=#2072B8;fontFamily=Tahoma;fontSize=11;fontStyle=0;container=0;" parent="1" vertex="1">
          <mxGeometry x="272.70553191489364" y="-762.5033333333333" width="24.425531914893618" height="43.333333333333336" as="geometry" />
        </mxCell>
        <mxCell id="bJePmw3YO0TLyzTxLK3B-4" value="&lt;font style=&quot;font-size: 10px;&quot;&gt;VM Node #2&lt;br&gt;NIC #1 (외부통신용 #1)&lt;br&gt;NIC #2 (클러스터용 #2)&lt;/font&gt;" style="sketch=0;pointerEvents=1;shadow=0;dashed=0;html=1;strokeColor=none;labelPosition=center;verticalLabelPosition=bottom;verticalAlign=top;outlineConnect=0;align=center;shape=mxgraph.office.servers.virtual_server;fillColor=#2072B8;fontFamily=Tahoma;fontSize=11;fontStyle=0;container=0;" parent="1" vertex="1">
          <mxGeometry x="393.08851063829786" y="-762.5033333333333" width="24.425531914893618" height="43.333333333333336" as="geometry" />
        </mxCell>
        <mxCell id="bJePmw3YO0TLyzTxLK3B-5" value="&lt;font style=&quot;font-size: 10px;&quot;&gt;VM Node #n&lt;br&gt;NIC #1 (외부통신용 #1)&lt;br&gt;NIC #2 (클러스터용 #2)&lt;/font&gt;" style="sketch=0;pointerEvents=1;shadow=0;dashed=0;html=1;strokeColor=none;labelPosition=center;verticalLabelPosition=bottom;verticalAlign=top;outlineConnect=0;align=center;shape=mxgraph.office.servers.virtual_server;fillColor=#2072B8;fontFamily=Tahoma;fontSize=11;fontStyle=0;container=0;" parent="1" vertex="1">
          <mxGeometry x="508.23744680851064" y="-762.5033333333333" width="24.425531914893618" height="43.333333333333336" as="geometry" />
        </mxCell>
        <mxCell id="bJePmw3YO0TLyzTxLK3B-8" value="" style="endArrow=none;html=1;rounded=0;" parent="1" edge="1">
          <mxGeometry width="50" height="50" relative="1" as="geometry">
            <mxPoint x="268.3438297872341" y="-662.5033333333332" as="sourcePoint" />
            <mxPoint x="530.0459574468085" y="-662.5033333333332" as="targetPoint" />
          </mxGeometry>
        </mxCell>
        <mxCell id="bJePmw3YO0TLyzTxLK3B-9" value="" style="endArrow=none;html=1;rounded=0;" parent="1" edge="1">
          <mxGeometry width="50" height="50" relative="1" as="geometry">
            <mxPoint x="398.7587234042553" y="-629.17" as="sourcePoint" />
            <mxPoint x="398.7587234042553" y="-662.5033333333332" as="targetPoint" />
          </mxGeometry>
        </mxCell>
        <mxCell id="bJePmw3YO0TLyzTxLK3B-2" value="&lt;font style=&quot;font-size: 11px;&quot;&gt;Giga switch&lt;/font&gt;" style="fontColor=#0066CC;verticalAlign=top;verticalLabelPosition=bottom;labelPosition=center;align=center;html=1;outlineConnect=0;fillColor=#CCCCCC;strokeColor=#6881B3;gradientColor=none;gradientDirection=north;strokeWidth=2;shape=mxgraph.networks.hub;container=0;" parent="1" vertex="1">
          <mxGeometry x="368.66297872340425" y="-637.5033333333332" width="61.06382978723404" height="16.666666666666668" as="geometry" />
        </mxCell>
        <mxCell id="bJePmw3YO0TLyzTxLK3B-13" value="" style="endArrow=none;html=1;rounded=0;" parent="1" edge="1">
          <mxGeometry width="50" height="50" relative="1" as="geometry">
            <mxPoint x="284.9182978723404" y="-662.5033333333332" as="sourcePoint" />
            <mxPoint x="284.9182978723404" y="-679.17" as="targetPoint" />
          </mxGeometry>
        </mxCell>
        <mxCell id="bJePmw3YO0TLyzTxLK3B-15" value="" style="endArrow=none;html=1;rounded=0;" parent="1" edge="1">
          <mxGeometry width="50" height="50" relative="1" as="geometry">
            <mxPoint x="399.1948936170213" y="-662.5033333333332" as="sourcePoint" />
            <mxPoint x="399.1948936170213" y="-679.17" as="targetPoint" />
          </mxGeometry>
        </mxCell>
        <mxCell id="bJePmw3YO0TLyzTxLK3B-16" value="" style="endArrow=none;html=1;rounded=0;" parent="1" edge="1">
          <mxGeometry width="50" height="50" relative="1" as="geometry">
            <mxPoint x="519.5778723404255" y="-662.5033333333332" as="sourcePoint" />
            <mxPoint x="519.5778723404255" y="-679.17" as="targetPoint" />
          </mxGeometry>
        </mxCell>
        <mxCell id="bJePmw3YO0TLyzTxLK3B-18" value="" style="rounded=1;whiteSpace=wrap;html=1;opacity=15;glass=0;fillColor=#008a00;strokeColor=#005700;fontColor=#ffffff;container=0;" parent="1" vertex="1">
          <mxGeometry x="200.00340425531917" y="-800" width="401.2765957446809" height="200" as="geometry" />
        </mxCell>
        <mxCell id="bJePmw3YO0TLyzTxLK3B-19" value="&lt;ul&gt;&lt;li&gt;&lt;font style=&quot;font-size: 12px;&quot;&gt;클러스터 기본 구성&lt;/font&gt;&lt;/li&gt;&lt;/ul&gt;" style="text;html=1;strokeColor=none;fillColor=none;align=center;verticalAlign=middle;whiteSpace=wrap;rounded=0;fontSize=7;fontStyle=1;container=0;" parent="1" vertex="1">
          <mxGeometry x="200" y="-790" width="163" height="17" as="geometry" />
        </mxCell>
      </root>
    </mxGraphModel>
  </diagram>
</mxfile>
